<svg xmlns="http://www.w3.org/2000/svg" xmlns:xlink="http://www.w3.org/1999/xlink" width="176" height="44" viewBox="0 0 176 44">
    <defs>
        <path id="a" d="M31.467 10.07H12v21.77h19.467V10.07z"/>
    </defs>
    <g fill="none" fill-rule="evenodd">
        <g transform="translate(.75 .033)">
            <circle cx="21.395" cy="22.113" r="21.145" stroke="#F2B200" stroke-width="1.25"/>
            <path fill="#F2B200" d="M23.352 31.865a8.988 8.988 0 0 1-.445 0c-.035 1.02-.08 1.876-.08 1.876l1.828 2.328s-.021-2.025-.15-4.361a5.844 5.844 0 0 1-1.153.157"/>
            <mask id="b" fill="#fff">
                <use xlink:href="#a"/>
            </mask>
            <path fill="#F2B200" d="M31.136 24.102c-.955-.666-3.387-.2-3.387-.2s1.162-4.936.299-6.403c-.879-1.493-2.325-1.168-3.188.1 0 0-.797-5.57-2.457-6.337-1.038-.48-1.727 1.167-1.727 1.167s-2.597-2.793-4.117-2.301c-1.96.634-.93 3.802-.93 3.802s-3.505-.462-3.62.5c-.165 1.4 1.794 2.602 4.483 4.436 0 0-3.64-.171-3.52 1.234.133 1.534 1.694 2.801 4.185 4.402 0 0-2.583-.338-3.819 1.034-1.228 1.363 4.21 6.198 9.583 6.304.038-1.074.064-2.328.017-2.945-.685-8.917-3.754-14.622-3.754-14.622 2.253 3.049 4.179 9.049 4.799 12.229.27 1.386.435 3.375.535 5.18 4.309-1.005 8.112-6.538 6.618-7.58" mask="url(#b)"/>
        </g>
        <text font-family="PatuaOne-Regular, Patua One" font-size="23.778" letter-spacing="-.17">
            <tspan x="51.5" y="31" fill="#F2B200">Natura</tspan> <tspan x="122.715" y="31" fill="#FFF">Local</tspan>
        </text>
    </g>
</svg>
