<svg xmlns="http://www.w3.org/2000/svg" width="17" height="17" viewBox="0 0 17 17">
    <path fill="#909090" fill-rule="evenodd" d="M17 15.655l-5.019-5.019a6.613 6.613 0 0 0 1.333-3.979A6.664 6.664 0 0 0 6.657 0 6.664 6.664 0 0 0 0 6.657a6.664 6.664 0 0 0 6.657 6.657c1.493 0 2.868-.5 3.98-1.333L15.654 17 17 15.655zM.634 6.657A6.03 6.03 0 0 1 6.657.634a6.03 6.03 0 0 1 6.023 6.023 6.03 6.03 0 0 1-6.023 6.023A6.03 6.03 0 0 1 .634 6.657zm10.64 4.785c.057-.055.113-.11.167-.167.047-.048.097-.092.141-.14l4.522 4.52-.45.449-4.52-4.522c.05-.044.093-.094.14-.14z" opacity=".534"/>
</svg>
