<?xml version="1.0" encoding="UTF-8" standalone="no"?><svg width="56" height="575" viewBox="0 0 56 575" xmlns="http://www.w3.org/2000/svg" xmlns:xlink="http://www.w3.org/1999/xlink"><svg height="42" width="42" viewBox="-5 -5 42 42" id="arrow-1-left" xmlns="http://www.w3.org/2000/svg"><path d="M10.439 5.33a1.148 1.148 0 0 1 1.612 0 1.095 1.095 0 0 1 0 1.562l-8.176 7.996h26.98c.629 0 1.145.488 1.145 1.104 0 .615-.516 1.12-1.145 1.12H3.875l8.176 7.98a1.114 1.114 0 0 1 0 1.577 1.148 1.148 0 0 1-1.612 0L.327 16.78a1.095 1.095 0 0 1 0-1.56z" fill="#ffb319"/></svg><svg height="42" width="42" viewBox="-5 -5 42 42" id="arrow-1-right" y="42" xmlns="http://www.w3.org/2000/svg"><path d="M21.548 5.33a1.148 1.148 0 0 0-1.612 0 1.095 1.095 0 0 0 0 1.562l8.177 7.995H1.13A1.111 1.111 0 0 0 0 15.992c0 .615.5 1.12 1.129 1.12h26.984l-8.177 7.98a1.114 1.114 0 0 0 0 1.577 1.148 1.148 0 0 0 1.612 0l10.114-9.888a1.07 1.07 0 0 0 0-1.561z" fill="#ffb319"/></svg><svg height="42" width="42" viewBox="-5 -5 42 42" id="arrow-2-left" y="84" xmlns="http://www.w3.org/2000/svg"><path d="M9.703 16L24.232 1.546a.9.9 0 0 0 0-1.28.91.91 0 0 0-1.288 0L7.768 15.362a.9.9 0 0 0 0 1.281l15.176 15.089a.919.919 0 0 0 .64.268.89.89 0 0 0 .641-.268.9.9 0 0 0 0-1.281z" fill="#ffb319"/></svg><svg height="42" width="42" viewBox="-5 -5 42 42" id="arrow-2-right" y="126" xmlns="http://www.w3.org/2000/svg"><path d="M24.238 15.362L9.056.267a.911.911 0 0 0-1.288 0 .899.899 0 0 0 0 1.28L22.302 16 7.768 30.451a.899.899 0 0 0 0 1.28.919.919 0 0 0 .64.269c.23 0 .466-.087.642-.268L24.23 16.636a.897.897 0 0 0 .007-1.274z" fill="#ffb319"/></svg><svg height="42" width="42" viewBox="-5 -5 42 42" id="arrow-3-left" y="168" xmlns="http://www.w3.org/2000/svg"><path d="M12.885 16.007L24.984 4.035c.333-.329.516-.768.516-1.237 0-.47-.183-.909-.516-1.238L23.924.51A1.764 1.764 0 0 0 22.671 0c-.473 0-.918.182-1.25.511L7.016 14.765c-.334.33-.517.772-.516 1.241-.001.471.181.912.516 1.243l14.392 14.24c.333.33.777.511 1.251.511.474 0 .918-.182 1.251-.511l1.06-1.049a1.74 1.74 0 0 0 0-2.475z" fill="#ffb319"/></svg><svg height="42" width="42" viewBox="-5 -5 42 42" id="arrow-3-right" y="210" xmlns="http://www.w3.org/2000/svg"><path d="M24.984 14.751L10.592.511A1.766 1.766 0 0 0 9.341 0c-.474 0-.918.182-1.251.511L7.03 1.56a1.74 1.74 0 0 0 0 2.475l12.085 11.958L7.017 27.965a1.73 1.73 0 0 0-.517 1.237c0 .47.184.909.517 1.239l1.06 1.048c.333.33.777.511 1.25.511.474 0 .919-.182 1.252-.511l14.405-14.253a1.73 1.73 0 0 0 .516-1.242 1.73 1.73 0 0 0-.516-1.243z" fill="#ffb319"/></svg><svg width="56" height="56" viewBox="-5 -5 56 56" id="arrow-left" y="252" xmlns="http://www.w3.org/2000/svg"><defs><circle id="gb" cx="20" cy="20" r="20"/><filter id="ga" width="127.5%" height="127.5%" x="-18.8%" y="-13.8%" filterUnits="objectBoundingBox"><feOffset dx="-2" in="SourceAlpha" result="shadowOffsetOuter1"/><feGaussianBlur in="shadowOffsetOuter1" result="shadowBlurOuter1" stdDeviation="1.5"/><feColorMatrix in="shadowBlurOuter1" values="0 0 0 0 0 0 0 0 0 0 0 0 0 0 0 0 0 0 0.16870471 0"/></filter></defs><g fill="none" fill-rule="evenodd"><g transform="translate(5 3)"><use fill="#000" filter="url(#ga)" xlink:href="#gb"/><use fill="#FFF" xlink:href="#gb"/></g><path fill="#F2B200" d="M33 22H20.8l5.6-5.6L25 15l-8 8 8 8 1.4-1.4-5.6-5.6H33z"/></g></svg><svg width="56" height="56" viewBox="-5 -5 56 56" id="arrow-right" y="308" xmlns="http://www.w3.org/2000/svg"><defs><circle id="hb" cx="20" cy="20" r="20"/><filter id="ha" width="127.5%" height="127.5%" x="-18.8%" y="-13.8%" filterUnits="objectBoundingBox"><feOffset dx="-2" in="SourceAlpha" result="shadowOffsetOuter1"/><feGaussianBlur in="shadowOffsetOuter1" result="shadowBlurOuter1" stdDeviation="1.5"/><feColorMatrix in="shadowBlurOuter1" values="0 0 0 0 0 0 0 0 0 0 0 0 0 0 0 0 0 0 0.17 0"/></filter></defs><g fill="none" fill-rule="evenodd"><g transform="matrix(-1 0 0 1 41 3)"><use fill="#000" filter="url(#ha)" xlink:href="#hb"/><use fill="#FFF" xlink:href="#hb"/></g><path fill="#F2B200" d="M13 22h12.2l-5.6-5.6L21 15l8 8-8 8-1.4-1.4 5.6-5.6H13z"/></g></svg><svg width="26" height="23" viewBox="-5 -5 26 23" id="em" y="364" xmlns="http://www.w3.org/2000/svg"><path fill="#F2B200" fill-rule="evenodd" d="M14.4 0H1.6C.72 0 0 .731 0 1.625v9.75C0 12.269.72 13 1.6 13h12.8c.88 0 1.6-.731 1.6-1.625v-9.75C16 .731 15.28 0 14.4 0zm0 3.25L8 7.313 1.6 3.25V1.625L8 5.688l6.4-4.063V3.25z"/></svg><svg width="26" height="26" viewBox="-5 -5 26 26" id="fb" y="387" xmlns="http://www.w3.org/2000/svg"><path fill="#F2B200" fill-rule="evenodd" d="M8 0C3.589 0 0 3.589 0 8c0 4.41 3.589 8 8 8 4.41 0 8-3.59 8-8 0-4.411-3.588-8-8-8zm1.99 8.282H8.688v4.639H6.759V8.28h-.916V6.643h.916v-1.06c0-.76.361-1.947 1.947-1.947l1.429.006v1.591H9.098c-.17 0-.41.085-.41.447v.963h1.47l-.168 1.64z"/></svg><svg width="26" height="26" viewBox="-5 -5 26 26" id="in" y="413" xmlns="http://www.w3.org/2000/svg"><g fill="#F2B200" fill-rule="evenodd"><path d="M7.944 9.535a1.59 1.59 0 1 0 1.291-2.518 1.588 1.588 0 0 0-1.29-.663c-.53 0-1 .262-1.29.663a1.591 1.591 0 0 0 1.289 2.518zm3.473-3.536V4.467h-.2l-1.332.005.005 1.532z"/><path d="M7.944 0C3.564 0 0 3.564 0 7.944s3.564 7.945 7.944 7.945 7.945-3.565 7.945-7.945C15.889 3.564 12.325 0 7.944 0zm4.518 7.017v3.7c0 .963-.783 1.746-1.746 1.746H5.172a1.748 1.748 0 0 1-1.746-1.747V5.173c0-.963.783-1.746 1.746-1.746h5.544c.963 0 1.746.783 1.746 1.746v1.844z"/><path d="M10.416 7.944a2.474 2.474 0 0 1-2.472 2.472 2.474 2.474 0 0 1-2.289-3.399H4.306v3.7c0 .478.388.865.866.865h5.544a.866.866 0 0 0 .865-.866V7.017h-1.349c.117.286.184.6.184.927z"/></g></svg><svg width="27" height="26" viewBox="-5 -5 27 26" id="ms" y="439" xmlns="http://www.w3.org/2000/svg"><path fill="#F2B200" fill-rule="evenodd" d="M17 7.448c0 4.107-3.813 7.449-8.5 7.449a9.442 9.442 0 0 1-3.469-.648C3.103 15.332.437 15.706.323 15.72a.284.284 0 0 1-.293-.15.27.27 0 0 1 .053-.318c.652-.634 1.1-1.973 1.268-3.776C.466 10.274 0 8.884 0 7.448 0 3.341 3.813 0 8.5 0 13.187 0 17 3.341 17 7.448zm-11.333 0c0-.608-.509-1.103-1.134-1.103-.625 0-1.133.495-1.133 1.103 0 .609.508 1.104 1.133 1.104s1.134-.495 1.134-1.104zm3.966 0c0-.608-.508-1.103-1.133-1.103s-1.133.495-1.133 1.103c0 .609.508 1.104 1.133 1.104s1.133-.495 1.133-1.104zm3.967 0c0-.608-.508-1.103-1.133-1.103s-1.134.495-1.134 1.103c0 .609.509 1.104 1.134 1.104.625 0 1.133-.495 1.133-1.104z"/></svg><svg viewBox="-5 -5 42 42" width="42" height="42" id="star-empty" y="465" xmlns="http://www.w3.org/2000/svg"><path d="M6.465 31.199a.572.572 0 0 1-.564-.67l1.77-10.324-7.498-7.31a.574.574 0 0 1 .318-.977l10.361-1.506 4.635-9.392a.57.57 0 1 1 1.026 0l4.634 9.392 10.362 1.506a.574.574 0 0 1 .318.977l-7.498 7.312 1.77 10.322a.574.574 0 0 1-.831.605L16 26.26 6.73 31.133a.574.574 0 0 1-.266.066zM1.803 12.885l6.883 6.71a.573.573 0 0 1 .164.508l-1.625 9.475 8.509-4.473a.569.569 0 0 1 .533 0l8.507 4.473-1.625-9.475a.574.574 0 0 1 .165-.507l6.882-6.711-9.51-1.383a.573.573 0 0 1-.432-.313L16 2.569l-4.254 8.62a.573.573 0 0 1-.431.314z" fill="#ffb319"/></svg><svg height="42" width="42" viewBox="-5 -5 42 42" id="star-fill" y="507" xmlns="http://www.w3.org/2000/svg"><path d="M31.972 12.308a.574.574 0 0 0-.463-.39l-10.362-1.506-4.634-9.392a.572.572 0 0 0-1.026 0l-4.634 9.392L.49 11.918a.575.575 0 0 0-.318.977l7.498 7.311-1.77 10.324a.574.574 0 0 0 .227.56c.177.13.411.146.603.043l9.27-4.874 9.267 4.874a.575.575 0 0 0 .604-.044.572.572 0 0 0 .227-.56l-1.77-10.323 7.498-7.311a.574.574 0 0 0 .145-.587z" fill="#ffb319"/></svg><svg width="26" height="26" viewBox="-5 -5 26 26" id="yt" y="549" xmlns="http://www.w3.org/2000/svg"><g fill="#F2B200" fill-rule="evenodd"><path d="M6.526 9.728l3.582-1.857-3.582-1.869v3.726z"/><path d="M7.98 0a7.98 7.98 0 1 0 0 15.96A7.98 7.98 0 0 0 7.98 0zm5.436 10.643a1.424 1.424 0 0 1-1.218 1.107c-1.397.156-2.81.157-4.219.156-1.408.001-2.822 0-4.22-.156a1.422 1.422 0 0 1-1.217-1.107c-.196-.853-.196-1.785-.196-2.663 0-.879.002-1.81.198-2.664.138-.6.628-1.041 1.218-1.107 1.397-.156 2.811-.157 4.22-.156 1.407-.001 2.822 0 4.218.156.59.066 1.08.508 1.219 1.107.196.853.194 1.785.194 2.664 0 .878 0 1.81-.197 2.663z"/></g></svg></svg>