<?xml version="1.0" encoding="UTF-8" standalone="no"?><svg width="42" height="546" viewBox="0 0 42 546" xmlns="http://www.w3.org/2000/svg" xmlns:xlink="http://www.w3.org/1999/xlink"><svg height="42" width="42" viewBox="-5 -5 42 42" id="arrow-1-left" xmlns="http://www.w3.org/2000/svg"><path d="M10.439 5.33a1.148 1.148 0 0 1 1.612 0 1.095 1.095 0 0 1 0 1.562l-8.176 7.996h26.98c.629 0 1.145.488 1.145 1.104 0 .615-.516 1.12-1.145 1.12H3.875l8.176 7.98a1.114 1.114 0 0 1 0 1.577 1.148 1.148 0 0 1-1.612 0L.327 16.78a1.095 1.095 0 0 1 0-1.56z" fill="#ffb319"/></svg><svg height="42" width="42" viewBox="-5 -5 42 42" id="arrow-1-right" y="42" xmlns="http://www.w3.org/2000/svg"><path d="M21.548 5.33a1.148 1.148 0 0 0-1.612 0 1.095 1.095 0 0 0 0 1.562l8.177 7.995H1.13A1.111 1.111 0 0 0 0 15.992c0 .615.5 1.12 1.129 1.12h26.984l-8.177 7.98a1.114 1.114 0 0 0 0 1.577 1.148 1.148 0 0 0 1.612 0l10.114-9.888a1.07 1.07 0 0 0 0-1.561z" fill="#ffb319"/></svg><svg height="42" width="42" viewBox="-5 -5 42 42" id="arrow-2-left" y="84" xmlns="http://www.w3.org/2000/svg"><path d="M9.703 16L24.232 1.546a.9.9 0 0 0 0-1.28.91.91 0 0 0-1.288 0L7.768 15.362a.9.9 0 0 0 0 1.281l15.176 15.089a.919.919 0 0 0 .64.268.89.89 0 0 0 .641-.268.9.9 0 0 0 0-1.281z" fill="#ffb319"/></svg><svg height="42" width="42" viewBox="-5 -5 42 42" id="arrow-2-right" y="126" xmlns="http://www.w3.org/2000/svg"><path d="M24.238 15.362L9.056.267a.911.911 0 0 0-1.288 0 .899.899 0 0 0 0 1.28L22.302 16 7.768 30.451a.899.899 0 0 0 0 1.28.919.919 0 0 0 .64.269c.23 0 .466-.087.642-.268L24.23 16.636a.897.897 0 0 0 .007-1.274z" fill="#ffb319"/></svg><svg height="42" width="42" viewBox="-5 -5 42 42" id="arrow-3-left" y="168" xmlns="http://www.w3.org/2000/svg"><path d="M12.885 16.007L24.984 4.035c.333-.329.516-.768.516-1.237 0-.47-.183-.909-.516-1.238L23.924.51A1.764 1.764 0 0 0 22.671 0c-.473 0-.918.182-1.25.511L7.016 14.765c-.334.33-.517.772-.516 1.241-.001.471.181.912.516 1.243l14.392 14.24c.333.33.777.511 1.251.511.474 0 .918-.182 1.251-.511l1.06-1.049a1.74 1.74 0 0 0 0-2.475z" fill="#ffb319"/></svg><svg height="42" width="42" viewBox="-5 -5 42 42" id="arrow-3-right" y="210" xmlns="http://www.w3.org/2000/svg"><path d="M24.984 14.751L10.592.511A1.766 1.766 0 0 0 9.341 0c-.474 0-.918.182-1.251.511L7.03 1.56a1.74 1.74 0 0 0 0 2.475l12.085 11.958L7.017 27.965a1.73 1.73 0 0 0-.517 1.237c0 .47.184.909.517 1.239l1.06 1.048c.333.33.777.511 1.25.511.474 0 .919-.182 1.252-.511l14.405-14.253a1.73 1.73 0 0 0 .516-1.242 1.73 1.73 0 0 0-.516-1.243z" fill="#ffb319"/></svg><svg viewBox="-5 -5 42 42" height="42" width="42" id="em" y="252" xmlns="http://www.w3.org/2000/svg"><path d="M28.8 3.6H3.2A3.21 3.21 0 0 0 0 6.8V26c0 1.76 1.44 3.2 3.2 3.2h25.6c1.76 0 3.2-1.44 3.2-3.2V6.8c0-1.76-1.44-3.2-3.2-3.2zm0 6.4L16 18 3.2 10V6.8l12.8 8 12.8-8z" fill="#ffb319"/></svg><svg viewBox="-5 -5 42 42" height="42" width="42" id="fb" y="294" xmlns="http://www.w3.org/2000/svg"><path d="M16 0C7.178 0 0 7.178 0 16s7.178 16 16 16 16-7.178 16-16S24.823 0 16 0zm3.98 16.563h-2.604v9.278h-3.857v-9.278h-1.834v-3.279h1.834v-2.12c0-1.52.722-3.894 3.892-3.894l2.859.011v3.184h-2.075c-.338 0-.818.168-.818.893v1.927h2.94z" fill="#ffb319"/></svg><svg width="42" height="42" viewBox="-5 -5 42 42" id="in" y="336" xmlns="http://www.w3.org/2000/svg"><g fill="#ffb319" transform="scale(.64449)"><path d="M24.825 29.796a4.978 4.978 0 0 0 4.972-4.97 4.954 4.954 0 0 0-.94-2.897 4.964 4.964 0 0 0-4.029-2.073c-1.659 0-3.126.82-4.031 2.072a4.947 4.947 0 0 0-.94 2.897 4.973 4.973 0 0 0 4.968 4.971zM30.891 13.975l.016 4.787 4.771-.016V13.96l-.623.002z"/><path d="M24.826 0C11.137 0 0 11.137 0 24.826c0 13.688 11.137 24.826 24.826 24.826 13.688 0 24.826-11.138 24.826-24.826C49.652 11.137 38.516 0 24.826 0zm14.119 21.929v11.56a5.463 5.463 0 0 1-5.457 5.458H16.164a5.462 5.462 0 0 1-5.457-5.458V16.165a5.462 5.462 0 0 1 5.457-5.457h17.323a5.463 5.463 0 0 1 5.458 5.457z"/><path d="M32.549 24.826c0 4.257-3.464 7.723-7.723 7.723s-7.722-3.466-7.722-7.723a7.67 7.67 0 0 1 .568-2.897h-4.215v11.56a2.706 2.706 0 0 0 2.706 2.704h17.323a2.707 2.707 0 0 0 2.706-2.704v-11.56h-4.217c.367.894.574 1.873.574 2.897z"/></g></svg><svg height="42" width="42" viewBox="-5 -5 42 42" id="ms" y="378" xmlns="http://www.w3.org/2000/svg"><path d="M16 2C7.178 2 0 7.95 0 15.263c0 2.557.878 5.033 2.543 7.174-.315 3.211-1.16 5.595-2.387 6.724a.463.463 0 0 0-.1.567.54.54 0 0 0 .552.267c.216-.028 5.233-.693 8.862-2.623A18.671 18.671 0 0 0 16 28.526c8.822 0 16-5.95 16-13.263S24.822 2 16 2zM8.533 17.228c-1.176 0-2.133-.881-2.133-1.965 0-1.083.957-1.965 2.133-1.965 1.177 0 2.134.882 2.134 1.965 0 1.084-.957 1.965-2.134 1.965zm7.467 0c-1.177 0-2.133-.881-2.133-1.965 0-1.083.956-1.965 2.133-1.965s2.133.882 2.133 1.965c0 1.084-.956 1.965-2.133 1.965zm7.467 0c-1.177 0-2.134-.881-2.134-1.965 0-1.083.957-1.965 2.134-1.965 1.176 0 2.133.882 2.133 1.965 0 1.084-.957 1.965-2.133 1.965z" fill="#ffb319"/></svg><svg viewBox="-5 -5 42 42" width="42" height="42" id="star-empty" y="420" xmlns="http://www.w3.org/2000/svg"><path d="M6.465 31.199a.572.572 0 0 1-.564-.67l1.77-10.324-7.498-7.31a.574.574 0 0 1 .318-.977l10.361-1.506 4.635-9.392a.57.57 0 1 1 1.026 0l4.634 9.392 10.362 1.506a.574.574 0 0 1 .318.977l-7.498 7.312 1.77 10.322a.574.574 0 0 1-.831.605L16 26.26 6.73 31.133a.574.574 0 0 1-.266.066zM1.803 12.885l6.883 6.71a.573.573 0 0 1 .164.508l-1.625 9.475 8.509-4.473a.569.569 0 0 1 .533 0l8.507 4.473-1.625-9.475a.574.574 0 0 1 .165-.507l6.882-6.711-9.51-1.383a.573.573 0 0 1-.432-.313L16 2.569l-4.254 8.62a.573.573 0 0 1-.431.314z" fill="#ffb319"/></svg><svg height="42" width="42" viewBox="-5 -5 42 42" id="star-fill" y="462" xmlns="http://www.w3.org/2000/svg"><path d="M31.972 12.308a.574.574 0 0 0-.463-.39l-10.362-1.506-4.634-9.392a.572.572 0 0 0-1.026 0l-4.634 9.392L.49 11.918a.575.575 0 0 0-.318.977l7.498 7.311-1.77 10.324a.574.574 0 0 0 .227.56c.177.13.411.146.603.043l9.27-4.874 9.267 4.874a.575.575 0 0 0 .604-.044.572.572 0 0 0 .227-.56l-1.77-10.323 7.498-7.311a.574.574 0 0 0 .145-.587z" fill="#ffb319"/></svg><svg width="42" height="42" viewBox="-5 -5 42 42" id="yt" y="504" xmlns="http://www.w3.org/2000/svg"><path d="M16 0C7.164 0 0 7.164 0 16s7.164 16 16 16 16-7.164 16-16c0-8.838-7.164-16-16-16zm9.83 19.582c-.108 1.332-1.12 3.032-2.534 3.278-4.53.352-9.898.308-14.59 0-1.464-.184-2.426-1.948-2.534-3.278-.228-2.796-.228-4.388 0-7.184.108-1.33 1.094-3.084 2.534-3.244 4.638-.39 10.036-.306 14.59 0 1.628.06 2.426 1.738 2.534 3.07.224 2.796.224 4.562 0 7.358z" fill="#ffb319"/><path fill="#ffb319" d="M20.328 15.995l-6.494-4.33v8.66z"/></svg></svg>