<svg xmlns="http://www.w3.org/2000/svg" width="107" height="16" viewBox="0 0 107 16">
    <g fill="#F2B200" fill-rule="evenodd">
        <path d="M107 6.2c0-.248-.19-.403-.572-.464l-5.129-.735L99.001.413C98.87.138 98.704 0 98.5 0c-.205 0-.372.138-.502.413l-2.298 4.588-5.129.735c-.381.061-.572.216-.572.464 0 .142.085.303.255.484l3.72 3.57-.88 5.04c-.013.094-.02.162-.02.202 0 .141.036.26.107.358.072.097.18.146.322.146.123 0 .26-.04.409-.12L98.5 13.5l4.587 2.379c.143.08.28.121.409.121.28 0 .419-.168.419-.504 0-.087-.004-.154-.01-.202l-.879-5.04 3.709-3.57c.177-.174.265-.336.265-.484zm-5.384 3.6l.736 4.244-3.852-2.006-3.862 2.006.746-4.244-3.126-2.995 4.311-.625L98.5 2.33l1.932 3.851 4.311.625-3.126 2.995zM84 6.2c0-.248-.19-.403-.572-.464l-5.129-.735L76.001.413C75.87.138 75.704 0 75.5 0c-.205 0-.372.138-.502.413l-2.298 4.588-5.129.735c-.381.061-.572.216-.572.464 0 .142.085.303.255.484l3.72 3.57-.88 5.04c-.013.094-.02.162-.02.202 0 .141.036.26.107.358.072.097.18.146.322.146.123 0 .26-.04.409-.12L75.5 13.5l4.587 2.379c.143.08.28.121.409.121.28 0 .419-.168.419-.504 0-.087-.004-.154-.01-.202l-.879-5.04 3.709-3.57c.177-.174.265-.336.265-.484zm-5.384 3.6l.736 4.244-3.852-2.006-3.862 2.006.746-4.244-3.126-2.995 4.311-.625L75.5 2.33l1.932 3.851 4.311.625L78.616 9.8zM51.91.362A.66.66 0 0 1 52.5 0c.251 0 .48.14.591.362l2.117 4.228a.658.658 0 0 0 .495.354l4.734.678a.655.655 0 0 1 .53.442.642.642 0 0 1-.166.665l-3.424 3.29a.644.644 0 0 0-.19.575l.808 4.648a.645.645 0 0 1-.262.634.669.669 0 0 1-.693.05l-4.234-2.195a.666.666 0 0 0-.612 0l-4.234 2.195a.667.667 0 0 1-.693-.05.645.645 0 0 1-.262-.634l.808-4.648a.643.643 0 0 0-.19-.574L44.2 6.729a.642.642 0 0 1-.167-.665.655.655 0 0 1 .532-.442l4.734-.678c.214-.03.4-.163.495-.355L51.911.362zM29.91.362A.66.66 0 0 1 30.5 0c.251 0 .48.14.591.362l2.117 4.228a.658.658 0 0 0 .495.354l4.734.678a.655.655 0 0 1 .53.442.642.642 0 0 1-.166.665l-3.424 3.29a.644.644 0 0 0-.19.575l.808 4.648a.645.645 0 0 1-.262.634.669.669 0 0 1-.693.05l-4.234-2.195a.666.666 0 0 0-.612 0l-4.234 2.195a.667.667 0 0 1-.693-.05.645.645 0 0 1-.262-.634l.808-4.648a.643.643 0 0 0-.19-.574L22.2 6.729a.642.642 0 0 1-.167-.665.655.655 0 0 1 .532-.442l4.734-.678c.214-.03.4-.163.495-.355L29.911.362zM7.91.362A.66.66 0 0 1 8.5 0c.251 0 .48.14.591.362l2.117 4.228a.658.658 0 0 0 .495.354l4.734.678a.655.655 0 0 1 .53.442.642.642 0 0 1-.166.665l-3.424 3.29a.644.644 0 0 0-.19.575l.808 4.648a.645.645 0 0 1-.262.634.669.669 0 0 1-.693.05L8.806 13.73a.666.666 0 0 0-.612 0L3.96 15.926a.667.667 0 0 1-.693-.05.645.645 0 0 1-.262-.634l.808-4.648a.643.643 0 0 0-.19-.574L.2 6.729a.642.642 0 0 1-.167-.665.655.655 0 0 1 .532-.442l4.734-.678c.214-.03.4-.163.495-.355L7.911.362z"/>
    </g>
</svg>
